<svg xmlns="http://www.w3.org/2000/svg" viewBox="0 0 187.531 64.656"><path d="M95.469 38.316h7.574l.273 2.824a9.84 9.84 0 0 1 3.076-2.445 9.322 9.322 0 0 1 4.39-.976 10.546 10.546 0 0 1 2.743.325 8.692 8.692 0 0 1 3.7 1.983 8.381 8.381 0 0 1 1.125 1.221 10.868 10.868 0 0 1 3.87-2.6 12.5 12.5 0 0 1 4.747-.924q4.942 0 7.548 2.769a10.576 10.576 0 0 1 2.6 7.549v15.746h-7.9v-14.5a5.458 5.458 0 0 0-1.017-3.529 3.692 3.692 0 0 0-3.045-1.249 4.634 4.634 0 0 0-3.677 1.575 5.9 5.9 0 0 0-1.371 4.019v13.684h-7.629v-14.5a5.458 5.458 0 0 0-1.016-3.529 3.7 3.7 0 0 0-3.046-1.249 4.659 4.659 0 0 0-3.651 1.575 5.821 5.821 0 0 0-1.4 4.019v13.684h-7.9V38.316Zm48.461 12.708a13.8 13.8 0 0 1 1.014-5.3 13.34 13.34 0 0 1 2.826-4.317 13.028 13.028 0 0 1 4.364-2.907 14.537 14.537 0 0 1 5.625-1.058 14.362 14.362 0 0 1 5.6 1.058 13.116 13.116 0 0 1 4.335 2.907 13.3 13.3 0 0 1 2.825 4.317 14.308 14.308 0 0 1 0 10.591 13.265 13.265 0 0 1-2.825 4.317 13.43 13.43 0 0 1-4.335 2.933 14.039 14.039 0 0 1-5.6 1.088 14.209 14.209 0 0 1-5.625-1.088 13.128 13.128 0 0 1-7.19-7.25 13.785 13.785 0 0 1-1.014-5.3m13.829 6.843a5.715 5.715 0 0 0 4.583-2.118 6.587 6.587 0 0 0 1.178-2.2 8.476 8.476 0 0 0 0-5.051 6.279 6.279 0 0 0-1.178-2.172 5.967 5.967 0 0 0-1.95-1.522 5.867 5.867 0 0 0-2.633-.568 6.058 6.058 0 0 0-2.662.568 5.615 5.615 0 0 0-1.95 1.522 6.938 6.938 0 0 0-1.178 2.172 7.929 7.929 0 0 0 0 5.051 7.3 7.3 0 0 0 1.178 2.2 5.5 5.5 0 0 0 1.953 1.56 6.044 6.044 0 0 0 2.662.57m20.738-30.8h7.9v12.654a7.413 7.413 0 0 1 2.991-1.793 11.526 11.526 0 0 1 3.758-.65 11.137 11.137 0 0 1 4.885 1.03 10.532 10.532 0 0 1 3.595 2.8 12.594 12.594 0 0 1 2.222 4.073 16.322 16.322 0 0 1-.246 10.617 12.293 12.293 0 0 1-2.936 4.453 13.394 13.394 0 0 1-4.722 2.878 18.3 18.3 0 0 1-6.364 1.032 31.473 31.473 0 0 1-6.231-.6 41.235 41.235 0 0 1-4.856-1.249V27.07Zm7.9 30.033a6.769 6.769 0 0 0 1.453.408 14.082 14.082 0 0 0 2.223.135 6.066 6.066 0 0 0 4.859-2.01 7.8 7.8 0 0 0 1.728-5.267 9.15 9.15 0 0 0-.3-2.336 6.728 6.728 0 0 0-.9-2.036 4.857 4.857 0 0 0-1.564-1.466 4.5 4.5 0 0 0-2.334-.57 4.925 4.925 0 0 0-3.9 1.438 5.6 5.6 0 0 0-1.261 3.829V57.1Zm25.408-18.787h7.906v25.472h-7.906V38.316Zm16.081 0h7.9V52.98a5.084 5.084 0 0 0 1.069 3.419 3.921 3.921 0 0 0 3.157 1.25 4.732 4.732 0 0 0 2.14-.463 5.012 5.012 0 0 0 1.591-1.221 4.958 4.958 0 0 0 .987-1.795 6.9 6.9 0 0 0 .33-2.114v-13.74h7.848v25.472h-7.574l-.219-2.717a9.611 9.611 0 0 1-3.32 2.417 10.152 10.152 0 0 1-4.308.951 9.437 9.437 0 0 1-7.025-2.607q-2.58-2.608-2.58-7.712v-15.8Zm32.435 20.2 12.622-13.9h-12.065v-6.3h22.06v5.377l-12.676 13.956H283v6.139h-22.669v-5.27Zm-43.515-24.225L177.954-31.8h77.724Z" transform="translate(-95.469)" style="fill:#e30613;fill-rule:evenodd"/></svg>