<svg xmlns="http://www.w3.org/2000/svg" xml:space="preserve" style="enable-background:new 0 0 425 422" viewBox="0 0 425 422"><linearGradient id="a" x1="178.541" x2="178.541" y1="83.225" y2="398.5" gradientUnits="userSpaceOnUse"><stop offset="0" style="stop-color:#ffa877"/><stop offset=".164" style="stop-color:#ff9f76"/><stop offset=".436" style="stop-color:#fe8574"/><stop offset=".781" style="stop-color:#fe5c70"/><stop offset=".994" style="stop-color:#fd3f6e"/></linearGradient><path d="M107.9 83.2h141.3c16.6 0 30 13.4 30 30v255.3c0 16.6-13.4 30-30 30H107.9c-16.6 0-30-13.4-30-30V113.2c0-16.5 13.4-30 30-30z" style="fill-rule:evenodd;clip-rule:evenodd;fill:url(#a)"/><path d="M131.8 127.9c-6.5 0-11.7 5.2-11.7 11.7 0 6.5 5.2 11.7 11.7 11.7 6.5 0 11.7-5.2 11.7-11.7 0-6.5-5.2-11.7-11.7-11.7zm.3-68.2c6 0 10.8-4.8 10.8-10.8V25.1c0-6-4.8-10.8-10.8-10.8-6 0-10.8 4.8-10.8 10.8v23.8c0 6 4.8 10.8 10.8 10.8zM91.6 31.1c-1.9-5.7-8-8.7-13.7-6.8-5.7 1.9-8.7 8-6.8 13.7l7.5 22.6c1.9 5.7 8 8.7 13.7 6.8s8.7-8 6.8-13.7l-7.5-22.6zM44.7 53.4c-4.2-4.2-11.1-4.2-15.3 0-4.2 4.2-4.2 11.1 0 15.3l16.8 16.8c4.2 4.2 11.1 4.2 15.3 0 4.2-4.2 4.2-11.1 0-15.3L44.7 53.4z" style="fill-rule:evenodd;clip-rule:evenodd;fill:#ffc8c3"/><linearGradient id="b" x1="217.866" x2="399" y1="259.931" y2="259.931" gradientUnits="userSpaceOnUse"><stop offset="0" style="stop-color:#41a4f5"/><stop offset=".38" style="stop-color:#389df1"/><stop offset=".994" style="stop-color:#1f89e5"/></linearGradient><path d="M308.4 169.4c50 0 90.6 40.5 90.6 90.6s-40.5 90.6-90.6 90.6c-50 0-90.6-40.5-90.6-90.6s40.6-90.6 90.6-90.6z" style="fill-rule:evenodd;clip-rule:evenodd;fill:url(#b)"/><path d="M391.5 296.1h-37.9c-3.4 20.4-9.7 37.9-17.7 50.1-8.6 2.7-17.9 4.2-27.4 4.2h-.2c14.7-.1 27.2-22.4 32.8-54.4h-65.8c5.5 31.7 18 54 32.5 54.4-9.6-.1-18.9-1.6-27.6-4.5-8-12.2-14.2-29.6-17.5-49.9h-37.2c-1.7-3.9-3.2-8-4.3-12.2H261c-.8-7.5-1.2-15.3-1.2-23.3 0-8.6.5-16.9 1.4-24.9h-40c1.2-4.2 2.6-8.3 4.3-12.2h37.4c3.6-20.6 10.1-38 18.5-50 7.9-2.5 16.2-3.9 24.9-4.1-13.9 1.8-25.7 23.5-31 54.1H341c-5.3-30.6-17.2-52.4-31.1-54.1 8.6.1 16.9 1.5 24.8 3.8 8.4 12 15 29.6 18.7 50.3h38.1c1.7 3.9 3.2 8 4.3 12.2H355c.9 8 1.4 16.3 1.4 24.9 0 8-.4 15.8-1.2 23.3h40.6c-1.2 4.3-2.6 8.4-4.3 12.3zm-48.8-60.4h-69.2c-.8 7.7-1.3 15.8-1.3 24.2 0 8.3.4 16.4 1.3 24h69.2c.8-7.7 1.3-15.7 1.3-24 0-8.4-.5-16.5-1.3-24.2z" style="fill-rule:evenodd;clip-rule:evenodd;fill:#acd7fa"/></svg>