<svg xmlns="http://www.w3.org/2000/svg" xml:space="preserve" id="Слой_1" x="0" y="0" style="enable-background:new 0 0 425 422" version="1.1" viewBox="0 0 425 422"><style>.st2,.st4{fill-rule:evenodd;clip-rule:evenodd;fill:#7789d4}.st4{fill:#5972cc}</style><path d="M377.5 326.9c0-31.8.3-72 .3-110.4 0-94.6-75.3-171.4-168.2-171.4-92.9 0-168.2 76.7-168.2 171.4 0 42.1.2 80.6.2 110.4 0 0-23.7 1.4-23.7-27.9 0-25.8-.4-54.8-.4-85.6 0-106 86-192 192-192s192 86 192 192c0 28.7-.3 58.4-.3 85.7 0 29.2-23.7 27.8-23.7 27.8z" style="fill-rule:evenodd;clip-rule:evenodd;fill:#bde0ff"/><path d="M214.5 23.6c103.7 2.7 187 87.6 187 191.9 0 28.7-.3 58.4-.3 85.7 0 16.1-7.2 22.9-13.7 25.7 0-31.5.3-70.8.3-108.4 0-94.6-75.3-171.4-168.2-171.4-1.7 0-3.3 0-5 .1-1.7 0-3.3-.1-5-.1-92.9 0-168.2 76.7-168.2 171.4 0 41.1.1 78.8.2 108.4-6.5-2.9-13.7-9.7-13.7-25.8 0-25.8-.4-54.8-.4-85.6 0-104.4 83.3-189.3 187-191.9z" style="fill-rule:evenodd;clip-rule:evenodd;fill:#dfefff"/><path d="M401.2 299c0 29.1-23.7 27.8-23.7 27.8 0-15.1 0-32 .1-49.7h23.6V299zm-383.3-.1c0-7 0-14.3-.1-21.9h23.6c0 18.3.1 35.1.1 49.7.1 0-23.6 1.4-23.6-27.8z" class="st2"/><path d="M401.2 298.9c0 16.1-7.2 22.9-13.7 25.7 0-14.5.1-30.7.1-47.7h13.6v22zm-373.3-.1c0-7 0-14.3-.1-21.8h13.6c0 17.4.1 33.5.1 47.7-6.4-2.9-13.6-9.7-13.6-25.9z" style="fill-rule:evenodd;clip-rule:evenodd;fill:#afb8e4"/><path d="M56.4 247.5h18.7c8.8 0 16 7.2 16 16v111.1c0 8.8-7.2 16-16 16H56.4c-8.8 0-16-7.2-16-16V263.5c0-8.9 7.1-16 16-16z" class="st4"/><path d="M90.1 263.5v111.1c0 8.8-7.2 16-16 16h-1.7c-8.8 0-16-7.2-16-16V263.5c0-8.8 7.2-16 16-16h1.7c8.8 0 16 7.1 16 16zM361.6 247.5h-18.7c-8.8 0-16 7.2-16 16v111.1c0 8.8 7.2 16 16 16h18.7c8.8 0 16-7.2 16-16V263.5c0-8.9-7.1-16-16-16z" class="st2"/><path d="M360.6 263.5v111.1c0 8.8-7.2 16-16 16h-1.7c-8.8 0-16-7.2-16-16V263.5c0-8.8 7.2-16 16-16h1.7c8.8 0 16 7.1 16 16z" class="st4"/><path d="M122.5 230.7H84.6c-8.8 0-16 7.2-16 16v142.8c0 8.8 7.2 16 16 16h37.9c8.8 0 16-7.2 16-16V246.7c0-8.9-7.2-16-16-16zM300 89.1s7.1 4.4 11.9 4.1 8.5-3.3 8.5-3.3l18.8-18.1C305 40.6 259.5 21.5 209.5 21.5c-50 0-95.5 19.1-129.7 50.4L98.6 90s3.8 3 8.5 3.3 11.9-4.1 11.9-4.1v.1c25.7-18.1 56.9-28.8 90.5-28.8 33.6-.1 64.8 10.6 90.5 28.6zm34.5 141.6h-37.9c-8.8 0-16 7.2-16 16v142.8c0 8.8 7.2 16 16 16h37.9c8.8 0 16-7.2 16-16V246.7c0-8.9-7.2-16-16-16z" style="fill-rule:evenodd;clip-rule:evenodd;fill:#ff5247"/><path d="M122.5 230.7h-8.6c-8.8 0-16 7.2-16 16v142.8c0 8.8 7.2 16 16 16h8.6c8.8 0 16-7.2 16-16V246.7c0-8.9-7.2-16-16-16zM320.3 90l18.8-18.1c-29.3-26.8-66.8-44.6-108.4-49.2-2.6.3-5.2.6-7.7 1.1-23.3 4.3-57 16-74.8 28.5s-18.8 16.3-18.8 21.3c0 1.9.9 4.9 2 7.7 23-13.2 49.6-20.8 78-20.8 33.6 0 64.8 10.6 90.5 28.8v-.1s7.1 4.4 11.9 4.1 8.5-3.3 8.5-3.3zm14.2 140.7h-8.6c-8.8 0-16 7.2-16 16v142.8c0 8.8 7.2 16 16 16h8.6c8.8 0 16-7.2 16-16V246.7c0-8.9-7.2-16-16-16z" style="fill-rule:evenodd;clip-rule:evenodd;fill:#ff6f61"/></svg>