<svg xmlns="http://www.w3.org/2000/svg" xml:space="preserve" style="enable-background:new 0 0 425 422" viewBox="0 0 425 422"><path d="M175.6 41.9c95.2 0 172.4 77.2 172.4 172.4s-77.2 172.4-172.4 172.4S3.3 309.4 3.3 214.3 80.5 41.9 175.6 41.9z" style="fill-rule:evenodd;clip-rule:evenodd;fill:#e8f1f8"/><path d="M173.9 387.5c-95.2 0-172.4-77.2-172.4-172.4S78.7 42.8 173.9 42.8 346.2 120 346.2 215.1 269 387.5 173.9 387.5zm-.5-342.9C90.4 44.6 23 111.9 23 195s67.3 150.4 150.4 150.4S323.8 278 323.8 195 256.4 44.6 173.4 44.6z" style="fill-rule:evenodd;clip-rule:evenodd;fill:#dce5ef"/><path d="M175.6 110.6c3 0 5.4-2.4 5.4-5.4V88.6c0-3-2.4-5.4-5.4-5.4s-5.4 2.4-5.4 5.4v16.6c.1 3 2.5 5.4 5.4 5.4zm125.9 98.5h-16.6c-3 0-5.4 2.4-5.4 5.4s2.4 5.4 5.4 5.4h16.6c3 0 5.4-2.4 5.4-5.4s-2.4-5.4-5.4-5.4zM175.6 318.4c-3 0-5.4 2.4-5.4 5.4v16.6c0 3 2.4 5.4 5.4 5.4s5.4-2.4 5.4-5.4v-16.6c0-3-2.4-5.4-5.4-5.4zM66.4 209.1H49.7c-3 0-5.4 2.4-5.4 5.4s2.4 5.4 5.4 5.4h16.6c3 0 5.4-2.4 5.4-5.4s-2.4-5.4-5.3-5.4zM214 163.2l-39.6 41.9-69.5-64.3c-3.9-3.6-10-3.4-13.6.5-3.6 3.9-3.4 10 .5 13.6l74 68.5c.5 1 1.2 2 2.1 2.8 2.1 1.9 4.8 2.8 7.4 2.6 2.6 0 5.3-1 7.2-3.1.8-.9 1.5-1.9 1.9-3l43.8-46.3c3.6-3.9 3.4-10-.5-13.6s-10.1-3.5-13.7.4z" style="fill-rule:evenodd;clip-rule:evenodd;fill:#3672a3"/><path d="M103.8 293.9c-2.3-1.9-2.5-5.3-.6-7.6l69.4-80.6c1.9-2.3 5.3-2.5 7.6-.6s2.5 5.3.6 7.6l-69.4 80.6c-1.9 2.3-5.3 2.5-7.6.6z" style="fill-rule:evenodd;clip-rule:evenodd;fill:#96e2ff"/><path d="M174.8 41.9C79.6 41.9 2.4 119.1 2.4 214.3s77.2 172.4 172.4 172.4 172.4-77.2 172.4-172.4S269.9 41.9 174.8 41.9zm.2 316.9c-79.7 0-144.3-64.6-144.3-144.3S95.3 70.2 175 70.2s144.3 64.6 144.3 144.3S254.7 358.8 175 358.8zm-.7-162.7c-10 0-18.1 8.1-18.1 18.1s8.1 18.1 18.1 18.1 18.1-8.1 18.1-18.1-8.2-18.1-18.1-18.1z" style="fill-rule:evenodd;clip-rule:evenodd;fill:#ff6a64"/><path d="M174.8 386.6c-95.2 0-172.4-77.2-172.4-172.4 0-2.3.1-4.5.1-6.7C6.1 299.8 82 373.6 175.2 373.6c89.2 0 162.7-67.6 171.8-154.4-2.6 92.9-78.7 167.4-172.2 167.4zm-.5-154.3c-10 0-18.1-8.1-18.1-18.1 0-2.4.5-4.7 1.3-6.7 2.7 6.7 9.2 11.4 16.8 11.4s14.1-4.7 16.8-11.4c.8 2.1 1.3 4.4 1.3 6.7-.1 10-8.2 18.1-18.1 18.1z" style="fill-rule:evenodd;clip-rule:evenodd;fill:#ea5a4b"/><path d="M310.1 166c48.9 0 88.6 39.7 88.6 88.6s-39.7 88.6-88.6 88.6-88.6-39.7-88.6-88.6 39.7-88.6 88.6-88.6z" style="fill-rule:evenodd;clip-rule:evenodd;fill:#8dcafc"/><path d="M310.7 343.3c-5.5 0-10.8-.5-16-1.5 41.3-7.5 72.6-43.7 72.6-87.2S336 175 294.7 167.4c5.2-1 10.6-1.5 16-1.5 48.9 0 88.6 39.7 88.6 88.6s-39.7 88.8-88.6 88.8z" style="fill-rule:evenodd;clip-rule:evenodd;fill:#64b9fc"/><path d="M375.6 170.3c-26.5 0-47.9 18-47.9 40.1 0 12.9 7.3 24.3 18.5 31.6l-1.3 19.5 16.8-12.7c4.4 1.1 9.1 1.7 13.9 1.7 26.5 0 47.9-18 47.9-40.1 0-22.2-21.4-40.1-47.9-40.1z" style="fill-rule:evenodd;clip-rule:evenodd;fill:#fcd79f"/><path d="M375.1 250.5c-2 0-4-.1-6-.3 23.6-2.5 41.9-19.3 41.9-39.8 0-20.4-18.3-37.3-41.9-39.8 2-.2 4-.3 6-.3 26.5 0 47.9 18 47.9 40.1s-21.4 40.1-47.9 40.1z" style="fill-rule:evenodd;clip-rule:evenodd;fill:#fac574"/><path d="M332 296.2c-1-1.4-1.9-2.8-2.8-4.2-.9-1.4-1.8-2.7-2.7-4-.9-1.3-1.5-2.1-1.7-2.5-.2-.3-.5-.9-1-1.9-.5-1-1-1.7-1.4-2.3-.5-.6-1-1-1.5-1.3-.8-.4-2.1-.3-3.9.3-1.8.6-3.5 1.3-5.2 2.3-1.7.9-3.4 1.7-5.1 2.3-1.7.6-2.9.8-3.7.4-.4-.2-.8-.5-1.2-1-.4-.5-.8-.9-1-1.2-.2-.3-.6-.8-1-1.5s-.7-1.1-.8-1.3c-3.9-5.8-6.9-11.8-8.8-17.8-1.9-6-3-12.6-3.4-19.8 0-.2-.1-.7-.1-1.6-.1-.8-.1-1.4-.1-1.8 0-.4 0-1 .1-1.6.1-.6.2-1.2.4-1.6.4-.7 1.4-1.4 3.1-2 1.7-.6 3.5-1.1 5.4-1.5 1.9-.4 3.7-.9 5.4-1.6 1.7-.7 2.8-1.4 3.2-2.3.3-.6.4-1.2.5-2 0-.8 0-1.7-.2-2.8-.2-1.1-.3-1.8-.3-2.2v-3.1c0-1.6-.1-3.3-.2-4.9-.1-1.7-.1-3.4-.2-5.2-.1-1.8-.2-3.3-.4-4.5-.2-1.2-.4-2-.6-2.2-.2-.3-.6-.5-1.2-.8-2.7-1.3-5.8-2-9.3-2.2-3.1 0-6.7 1.6-10.6 4.9-4 3.3-6.7 6.6-8.3 9.8-.5.9-.9 1.9-1.2 3-.4 1.1-.7 2-.9 2.8-.2.8-.4 1.9-.6 3.2-.2 1.4-.4 2.3-.4 2.9-.1.6-.2 1.7-.4 3.3-.2 1.6-.3 2.6-.4 3-1.3 11 .2 23.2 4.5 36.4s10.1 23.8 17.5 31.7c.3.3 1 1 2 2.2 1.1 1.2 1.8 2 2.2 2.4.4.4 1.1 1.1 2 2.1 1 .9 1.7 1.6 2.4 2.1.6.5 1.4 1 2.3 1.7.9.6 1.8 1.2 2.7 1.6 3.2 1.6 7.3 2.4 12.3 2.4 5 0 8.8-1 11.2-3 2.7-2.4 4.7-5 6.1-7.8.3-.6.5-1.1.5-1.5 0-.3-.2-1.1-.8-2.2-.7-.9-1.4-2.1-2.4-3.6zm24.8-92.9h41.3c1.8 0 3.2-1.4 3.2-3.2s-1.4-3.2-3.2-3.2h-41.3c-1.8 0-3.2 1.4-3.2 3.2s1.5 3.2 3.2 3.2zm41.4 9.6h-41.3c-1.8 0-3.2 1.4-3.2 3.2s1.4 3.2 3.2 3.2h41.3c1.8 0 3.2-1.4 3.2-3.2s-1.5-3.2-3.2-3.2z" style="fill-rule:evenodd;clip-rule:evenodd;fill:#fff"/></svg>